<svg width="123" height="50" viewBox="0 0 123 50" fill="none" xmlns="http://www.w3.org/2000/svg">
<path d="M118.778 13.9706V24.2647" stroke="#EC6C01" stroke-width="4" stroke-miterlimit="10" stroke-linecap="round"/>
<path d="M115.8 16.538H113.231C113.064 15.8957 112.777 15.2916 112.386 14.7582C110.835 12.7471 108.106 12.3851 106.277 12.1538C101.764 11.5907 76.1222 11.6862 71.6737 12.1538C68.2591 12.5108 66.7581 14.8135 66.2064 16.9653C64.7153 17.4329 62.0213 18.177 60.6197 18.177C59.2181 18.177 56.5341 17.4329 55.0281 16.9603C54.4813 14.7933 52.9753 12.5108 49.5607 12.1538C45.0874 11.6812 19.4703 11.5907 14.9323 12.1538C13.153 12.4001 10.4292 12.7269 8.8735 14.7582C8.48246 15.2916 8.19568 15.8957 8.02855 16.538H5.45888C4.86568 16.538 4.29678 16.7763 3.87733 17.2006C3.45788 17.6249 3.22223 18.2004 3.22223 18.8005C3.22223 19.4005 3.45788 19.976 3.87733 20.4003C4.29678 20.8246 4.86568 21.0629 5.45888 21.0629H8.06334C8.56037 23.8634 9.74828 30.49 10.8964 33.6323C11.4337 35.1392 12.3945 36.4545 13.6607 37.4165C14.927 38.3785 16.4435 38.9453 18.0239 39.0472C23.3173 39.4896 27.6067 39.7058 31.8017 39.7058C35.9966 39.7058 40.0773 39.4896 44.9731 39.0522C45.2564 39.0522 51.9316 38.9919 53.7159 33.5871C54.8392 30.1883 55.207 21.4501 55.2667 19.9267C56.8472 20.3842 59.1187 20.9322 60.6296 20.9322C62.1406 20.9322 64.4121 20.3641 65.9926 19.9267C66.0573 21.6311 66.43 30.2235 67.5434 33.5871C69.3228 38.9919 75.993 39.0221 76.1669 39.0472C81.1373 39.4896 85.2627 39.7058 89.4676 39.7058C93.6725 39.7058 97.9171 39.4896 103.156 39.0522C104.75 38.9626 106.283 38.4011 107.564 37.4376C108.846 36.474 109.819 35.1507 110.363 33.6323C111.511 30.5151 112.719 23.8885 113.196 21.0629H115.8C116.394 21.0629 116.963 20.8246 117.382 20.4003C117.801 19.976 118.037 19.4005 118.037 18.8005C118.037 18.2004 117.801 17.6249 117.382 17.2006C116.963 16.7763 116.394 16.538 115.8 16.538V16.538ZM52.5628 19.5094C52.4683 22.2495 52.0359 29.9671 51.1413 32.6921C49.9832 36.2115 45.0178 36.2769 44.8538 36.2819C35.107 37.1467 28.6405 37.1467 18.1631 36.2819C17.1142 36.2005 16.1108 35.8147 15.2733 35.1708C14.4358 34.5269 13.7997 33.6523 13.4412 32.6519C12.1191 29.0621 10.6131 19.8513 10.5336 19.3585C10.3646 18.0714 10.5336 17.091 11.0306 16.4475C11.8905 15.3213 13.7792 15.0799 15.325 14.8889C19.6293 14.3459 45.147 14.4565 49.3122 14.8889C52.7815 15.2509 52.5976 19.0167 52.5628 19.5094ZM110.716 19.3535C110.636 19.8563 109.13 29.0571 107.808 32.6469C107.445 33.6601 106.797 34.5439 105.944 35.1897C105.091 35.8355 104.07 36.2152 103.007 36.2819C92.6088 37.1467 86.1424 37.1467 76.2763 36.2819C76.2266 36.2819 71.2761 36.2417 70.1081 32.6971C69.2134 29.9721 68.781 22.2545 68.6816 19.439C68.6468 19.0167 68.4331 15.2609 71.9421 14.914C74.1341 14.6827 82.2556 14.542 90.0839 14.542C97.1119 14.542 103.906 14.6576 105.954 14.914C107.475 15.1 109.364 15.3414 110.224 16.4676C110.726 17.086 110.895 18.0664 110.726 19.3535H110.716Z" fill="#7795E1"/>
<path d="M9.14813 19.1176H121" stroke="#EC6C01" stroke-width="4" stroke-miterlimit="10" stroke-linecap="round"/>
<path d="M2.48145 13.9706V23.5294" stroke="#EC6C01" stroke-width="4" stroke-miterlimit="10" stroke-linecap="round"/>
</svg>
