<svg width="120" height="50" viewBox="0 0 120 50" fill="none" xmlns="http://www.w3.org/2000/svg">
<path d="M117.706 18.5344H115.07C114.899 17.8862 114.605 17.2768 114.203 16.7398C112.612 14.6809 109.813 14.3352 107.937 14.1013C103.307 13.5319 77.0035 13.6285 72.4402 14.1013C68.9375 14.4623 67.3977 16.7907 66.8318 18.9666C65.3022 19.4394 62.5387 20.1918 61.1009 20.1918C59.6631 20.1918 56.9099 19.4394 55.365 18.9615C54.8041 16.7703 53.2593 14.4623 49.7565 14.1013C45.1678 13.6285 18.8896 13.5319 14.2345 14.1013C12.3837 14.3301 9.58461 14.6758 7.99385 16.7348C7.59178 17.2718 7.29747 17.8811 7.12709 18.5294H4.5166C3.9081 18.5294 3.32451 18.7704 2.89424 19.1994C2.46396 19.6285 2.22223 20.2104 2.22223 20.8171C2.22223 21.4238 2.46396 22.0057 2.89424 22.4348C3.32451 22.8638 3.9081 23.1048 4.5166 23.1048H7.18827C7.69813 25.9365 8.9167 32.6371 10.0945 35.8145C10.6488 37.3344 11.6358 38.6601 12.9345 39.629C14.2331 40.5979 15.7871 41.168 17.4059 41.2695C22.8359 41.7169 27.236 41.9355 31.5392 41.9355C35.8424 41.9355 40.0284 41.7169 45.0505 41.2746C45.3411 41.2746 52.1886 41.2136 54.019 35.7484C55.1712 32.3117 55.5485 23.476 55.6097 21.9355C57.2311 22.3982 59.5611 22.9523 61.1111 22.9523C62.6611 22.9523 64.9912 22.3778 66.6125 21.9355C66.6788 23.659 67.0612 32.3473 68.2033 35.7484C70.0286 41.2136 76.8709 41.2441 77.0494 41.2695C82.148 41.7169 86.3798 41.9355 90.6932 41.9355C95.0066 41.9355 99.3609 41.7169 104.735 41.2746C106.37 41.184 107.943 40.6162 109.257 39.6419C110.571 38.6675 111.57 37.3295 112.128 35.7942C113.306 32.6422 114.544 25.9416 115.034 23.0845H117.706C118.314 23.0845 118.898 22.8435 119.328 22.4144C119.758 21.9854 120 21.4035 120 20.7968C120 20.19 119.758 19.6081 119.328 19.1791C118.898 18.7501 118.314 18.509 117.706 18.509V18.5344ZM52.8361 21.539C52.7392 24.3097 52.2956 32.1134 51.3779 34.8689C50.1899 38.4276 45.0964 38.4937 44.9281 38.4988C34.9298 39.3732 28.2965 39.3732 17.5486 38.4988C16.4727 38.4164 15.4434 38.0263 14.5843 37.3753C13.7251 36.7242 13.0726 35.8398 12.705 34.8282C11.3487 31.1983 9.80385 21.8847 9.72228 21.3865C9.54892 20.085 9.72228 19.0937 10.2321 18.4429C11.1142 17.3041 13.0517 17.0652 14.6373 16.8669C19.0527 16.3179 45.229 16.4297 49.5016 16.8669C53.0604 17.233 52.8718 21.0408 52.8361 21.539ZM112.49 21.3814C112.408 21.8898 110.863 31.1933 109.507 34.8231C109.135 35.8477 108.47 36.7414 107.595 37.3944C106.72 38.0474 105.673 38.4313 104.582 38.4988C93.9155 39.3732 87.2823 39.3732 77.1615 38.4988C77.1105 38.4988 72.0323 38.4581 70.8342 34.874C69.9164 32.1185 69.4728 24.3148 69.3709 21.4678C69.3352 21.0408 69.1159 17.2431 72.7155 16.8924C74.964 16.6585 83.2951 16.5161 91.3254 16.5161C98.5349 16.5161 105.505 16.6331 107.605 16.8924C109.165 17.0855 111.103 17.3245 111.985 18.4633C112.5 19.0886 112.673 20.0799 112.5 21.3814H112.49Z" fill="#7795E1"/>
<path d="M57.037 20.1613H65.1852" stroke="#EC6C01" stroke-width="4" stroke-miterlimit="10" stroke-linecap="round"/>
<path d="M54.0741 15.3226V25.8064" stroke="#EC6C01" stroke-width="4" stroke-miterlimit="10" stroke-linecap="round"/>
<path d="M67.4074 15.3226V25.8064" stroke="#EC6C01" stroke-width="4" stroke-miterlimit="10" stroke-linecap="round"/>
</svg>
