<svg width="120" height="50" viewBox="0 0 120 50" fill="none" xmlns="http://www.w3.org/2000/svg">
<path d="M117.706 16.781H115.07C114.898 16.1507 114.604 15.5579 114.203 15.0344C112.612 13.0609 109.813 12.7056 107.937 12.4787C103.307 11.9261 77.0035 12.0198 72.4402 12.4787C68.9375 12.829 67.3977 15.0887 66.8317 17.2004C65.3022 17.6592 62.5387 18.3894 61.1009 18.3894C59.6631 18.3894 56.9099 17.6592 55.365 17.1954C54.8041 15.0689 53.2593 12.829 49.7565 12.4787C45.1678 12.0149 18.8896 11.9261 14.2345 12.4787C12.4092 12.7204 9.6152 13.0411 8.01934 15.0344C7.61821 15.5579 7.32402 16.1507 7.15258 16.781H4.5166C3.9081 16.781 3.32451 17.0149 2.89423 17.4313C2.46396 17.8476 2.22223 18.4124 2.22223 19.0012C2.22223 19.5901 2.46396 20.1548 2.89423 20.5712C3.32451 20.9875 3.9081 21.2214 4.5166 21.2214H7.18827C7.69813 23.9696 8.9167 30.4724 10.0945 33.5561C10.6456 35.0348 11.6312 36.3255 12.9301 37.2696C14.229 38.2136 15.7847 38.7698 17.4059 38.8698C22.8359 39.304 27.236 39.5162 31.5392 39.5162C35.8424 39.5162 40.0284 39.304 45.0505 38.8748C45.3411 38.8748 52.1885 38.8156 54.0189 33.5117C55.1712 30.1764 55.5485 21.6014 55.6097 20.1064C57.2311 20.5554 59.5611 21.0932 61.1111 21.0932C62.6611 21.0932 64.9911 20.5356 66.6125 20.1064C66.6788 21.779 67.0612 30.2109 68.2033 33.5117C70.0286 38.8156 76.8709 38.8452 77.0493 38.8698C82.1479 39.304 86.3798 39.5162 90.6932 39.5162C95.0066 39.5162 99.3608 39.304 104.735 38.8748C106.37 38.7868 107.943 38.2358 109.257 37.2902C110.571 36.3446 111.57 35.0461 112.128 33.5561C113.306 30.4971 114.544 23.9943 115.034 21.2214H117.706C118.314 21.2214 118.898 20.9875 119.328 20.5712C119.758 20.1548 120 19.5901 120 19.0012C120 18.4124 119.758 17.8476 119.328 17.4313C118.898 17.0149 118.314 16.781 117.706 16.781V16.781ZM52.8361 19.6969C52.7392 22.3858 52.2956 29.9593 51.3779 32.6334C50.1899 36.0871 45.0964 36.1513 44.9281 36.1562C34.9298 37.0048 28.2965 37.0048 17.5486 36.1562C16.4727 36.0763 15.4434 35.6977 14.5843 35.0659C13.7251 34.434 13.0726 33.5757 12.705 32.594C11.3487 29.0712 9.80385 20.0324 9.72227 19.5489C9.54892 18.2858 9.72227 17.3237 10.2321 16.6922C11.1142 15.587 13.0517 15.3502 14.6373 15.1627C19.0527 14.6298 45.229 14.7384 49.5016 15.1627C53.0604 15.5179 52.8718 19.2134 52.8361 19.6969ZM112.49 19.5439C112.408 20.0373 110.863 29.0663 109.507 32.589C109.135 33.5833 108.47 34.4507 107.595 35.0844C106.72 35.7182 105.673 36.0907 104.582 36.1562C93.9155 37.0048 87.2822 37.0048 77.1615 36.1562C77.1105 36.1562 72.0323 36.1167 70.8341 32.6384C69.9164 29.9642 69.4728 22.3908 69.3708 19.6278C69.3352 19.2134 69.1159 15.5278 72.7155 15.1873C74.964 14.9604 83.2951 14.8222 91.3254 14.8222C98.5349 14.8222 105.505 14.9357 107.605 15.1873C109.165 15.3699 111.103 15.6067 111.985 16.7119C112.5 17.3188 112.673 18.2809 112.5 19.5439H112.49Z" fill="#7795E1"/>
<path d="M11.8519 25.8065H52.5926" stroke="#EC6C01" stroke-width="4" stroke-miterlimit="10" stroke-linecap="round"/>
<path d="M9.62964 20.9677V30.6451" stroke="#EC6C01" stroke-width="4" stroke-miterlimit="10" stroke-linecap="round"/>
<path d="M54.0741 20.9677V30.6451" stroke="#EC6C01" stroke-width="4" stroke-miterlimit="10" stroke-linecap="round"/>
<path d="M91.1111 16.129V37.0968" stroke="#EC6C01" stroke-width="4" stroke-miterlimit="10" stroke-linecap="round"/>
<path d="M96.2963 14.5161H85.926" stroke="#EC6C01" stroke-width="4" stroke-miterlimit="10" stroke-linecap="round"/>
<path d="M96.2963 39.5161H85.926" stroke="#EC6C01" stroke-width="4" stroke-miterlimit="10" stroke-linecap="round"/>
</svg>
