<svg width="258" height="89" viewBox="0 0 258 89" fill="none" xmlns="http://www.w3.org/2000/svg">
<g filter="url(#filter0_d)">
<path d="M4 4C4 1.79086 5.79086 0 8 0H36.5075C37.804 0 39.0202 0.62843 39.7702 1.68601L49.2128 15L57.5871 25.2042C58.3468 26.13 59.4815 26.6667 60.6791 26.6667H126.34H198.848C200.085 26.6667 201.252 26.0946 202.01 25.1171L209.851 15L220.885 1.47184C221.644 0.540445 222.783 0 223.984 0H250C252.209 0 254 1.79086 254 4V74.716C254 77.3678 251.467 79.2856 248.914 78.5658L201.341 65.1501C200.988 65.0505 200.622 65 200.255 65H126.34H59.3249C58.9681 65 58.6128 65.0478 58.2686 65.142L9.05627 78.6157C6.51082 79.3126 4 77.3968 4 74.7576V4Z" fill="#274BA8"/>
</g>
<defs>
<filter id="filter0_d" x="0" y="0" width="258" height="88.7599" filterUnits="userSpaceOnUse" color-interpolation-filters="sRGB">
<feFlood flood-opacity="0" result="BackgroundImageFix"/>
<feColorMatrix in="SourceAlpha" type="matrix" values="0 0 0 0 0 0 0 0 0 0 0 0 0 0 0 0 0 0 127 0" result="hardAlpha"/>
<feOffset dy="6"/>
<feGaussianBlur stdDeviation="2"/>
<feComposite in2="hardAlpha" operator="out"/>
<feColorMatrix type="matrix" values="0 0 0 0 0 0 0 0 0 0 0 0 0 0 0 0 0 0 0.25 0"/>
<feBlend mode="normal" in2="BackgroundImageFix" result="effect1_dropShadow"/>
<feBlend mode="normal" in="SourceGraphic" in2="effect1_dropShadow" result="shape"/>
</filter>
</defs>
</svg>
